<svg id="visual" viewBox="0 0 900 80" width="900" height="80" xmlns="http://www.w3.org/2000/svg" xmlns:xlink="http://www.w3.org/1999/xlink" version="1.1"><rect x="0" y="0" width="900" height="80" fill="#000000"></rect><path d="M0 35L129 35L129 45L257 45L257 46L386 46L386 35L514 35L514 47L643 47L643 37L771 37L771 35L900 35L900 48L900 81L900 81L771 81L771 81L643 81L643 81L514 81L514 81L386 81L386 81L257 81L257 81L129 81L129 81L0 81Z" fill="#ee626b"></path><path d="M0 53L129 53L129 56L257 56L257 57L386 57L386 52L514 52L514 51L643 51L643 47L771 47L771 52L900 52L900 48L900 81L900 81L771 81L771 81L643 81L643 81L514 81L514 81L386 81L386 81L257 81L257 81L129 81L129 81L0 81Z" fill="#930026"></path><path d="M0 59L129 59L129 70L257 70L257 67L386 67L386 59L514 59L514 60L643 60L643 68L771 68L771 62L900 62L900 67L900 81L900 81L771 81L771 81L643 81L643 81L514 81L514 81L386 81L386 81L257 81L257 81L129 81L129 81L0 81Z" fill="#000000"></path></svg>