<svg id="visual" viewBox="0 0 900 100" width="900" height="100" xmlns="http://www.w3.org/2000/svg" xmlns:xlink="http://www.w3.org/1999/xlink" version="1.1"><rect x="0" y="0" width="900" height="100" fill="#000000"></rect><path d="M0 44L129 44L129 57L257 57L257 52L386 52L386 52L514 52L514 57L643 57L643 57L771 57L771 35L900 35L900 56L900 0L900 0L771 0L771 0L643 0L643 0L514 0L514 0L386 0L386 0L257 0L257 0L129 0L129 0L0 0Z" fill="#ee626b"></path><path d="M0 35L129 35L129 29L257 29L257 32L386 32L386 25L514 25L514 41L643 41L643 27L771 27L771 31L900 31L900 32L900 0L900 0L771 0L771 0L643 0L643 0L514 0L514 0L386 0L386 0L257 0L257 0L129 0L129 0L0 0Z" fill="#930026"></path><path d="M0 13L129 13L129 19L257 19L257 12L386 12L386 15L514 15L514 17L643 17L643 11L771 11L771 15L900 15L900 20L900 0L900 0L771 0L771 0L643 0L643 0L514 0L514 0L386 0L386 0L257 0L257 0L129 0L129 0L0 0Z" fill="#000000"></path></svg>