<svg id="visual" viewBox="0 0 900 80" width="900" height="80" xmlns="http://www.w3.org/2000/svg" xmlns:xlink="http://www.w3.org/1999/xlink" version="1.1"><rect x="0" y="0" width="900" height="80" fill="#000"></rect><path d="M0 38L7.8 39.2C15.7 40.3 31.3 42.7 47.2 44.3C63 46 79 47 94.8 47.7C110.7 48.3 126.3 48.7 142 45.2C157.7 41.7 173.3 34.3 189.2 35C205 35.7 221 44.3 236.8 48.5C252.7 52.7 268.3 52.3 284.2 50.7C300 49 316 46 331.8 46.2C347.7 46.3 363.3 49.7 379 49.8C394.7 50 410.3 47 426.2 42.7C442 38.3 458 32.7 473.8 34.5C489.7 36.3 505.3 45.7 521 49.2C536.7 52.7 552.3 50.3 568.2 45.7C584 41 600 34 615.8 31.3C631.7 28.7 647.3 30.3 663.2 34.2C679 38 695 44 710.8 44.2C726.7 44.3 742.3 38.7 758 36.2C773.7 33.7 789.3 34.3 805.2 35.8C821 37.3 837 39.7 852.8 41C868.7 42.3 884.3 42.7 892.2 42.8L900 43" fill="none" stroke-linecap="round" stroke-linejoin="miter" stroke="#EE626B" stroke-width="44"></path></svg>